<svg xmlns="http://www.w3.org/2000/svg" version="1.1" xmlns:xlink="http://www.w3.org/1999/xlink" xmlns:svgjs="http://svgjs.dev/svgjs" viewBox="0 0 800 800" opacity="0.1"><defs><linearGradient x1="50%" y1="0%" x2="50%" y2="100%" id="uundulate-grad"><stop stop-color="hsl(37, 1%, 84%)" stop-opacity="1" offset="45%"></stop><stop stop-color="hsl(0, 0%, 74%)" stop-opacity="1" offset="100%"></stop></linearGradient></defs><g stroke-width="1" stroke="url(#uundulate-grad)" fill="none"><path d="M1381.9841356076013 -288.9015483588406C1474.731841082556 19.62026824362897 1427.6973361836672 410.05322775152786 1175.7484566866933 826.0665783502445C923.7995771897195 1242.0799289489614 434.6534229886913 1797.3948089094038 172.62951402212616 1707.962534515002C-89.39439494443889 1618.5302601206008 77.44869911333626 927.0797889067235 -81.96630635281724 396.79166125712027C-241.38131181897052 -133.4964663924834 -761.8387157070221 -618.3309359950235 -592.5625122154121 -837.4204782030919C-423.286308723802 -1056.5100204111602 319.19558544378424 -769.1129183924934 730.5594704069115 -654.8381413416082C1141.9233553700387 -540.5633642907229 1289.236430132646 -597.4233649613104 1381.9841356076013 -288.9015483588406C1474.731841082556 19.62026824362897 1427.6973361836672 410.05322775152786 1175.7484566866933 826.0665783502445 "></path><path d="M1356.1425112728925 -270.77269998251836C1446.4494876564013 29.63012144620211 1400.6527328864304 409.7885293881036 1155.3340870604297 814.854160234223C910.0154412344284 1219.9197910803414 433.7415542492172 1760.6211215681406 178.61301130808806 1673.542328078855C-76.51553163304118 1586.4635345895695 85.93695468637134 913.209128407636 -69.28291905698859 396.875951485654C-224.50279280034852 -119.45722543632837 -731.2639492176618 -591.5328932072227 -566.4423826600414 -804.8569211466577C-401.62081610242114 -1018.1809490860926 321.32208085022853 -738.346928699496 721.8606004195894 -627.079382623634C1122.3991199889506 -515.8118365477721 1265.8355348893838 -571.1755214112388 1356.1425112728925 -270.77269998251836C1446.4494876564013 29.63012144620211 1400.6527328864304 409.7885293881036 1155.3340870604297 814.854160234223 "></path><path d="M1330.3007648678713 -252.6436074655711C1418.1670121599336 39.64021878940025 1373.608007518881 409.52407516530434 1134.9195953638532 803.6419862588257C896.2311832088253 1197.7598973523468 432.82956343943033 1723.8476783675023 184.59638652373724 1639.122365783333C-63.63679039195608 1554.397053199163 94.42508818909403 899.3387120491739 -56.59965383147244 396.96048585481276C-207.6243958520388 -105.41774033954835 -700.6893047986139 -564.734606278797 -540.3223751749833 -772.2931199495986C-379.9554455513528 -979.8516336204001 323.4484541863603 -707.5806948658736 713.1616083619549 -599.320379765035C1102.8747625375495 -491.0600646641965 1242.4345175758085 -544.9274337205425 1330.3007648678713 -252.6436074655711C1418.1670121599336 39.64021878940025 1373.608007518881 409.52407516530434 1134.9195953638532 803.6419862588257 "></path><path d="M1304.4591100155849 -234.51463701893624C1389.8846282162008 49.65019406228612 1346.5633737040666 409.2594988721928 1114.5051952200115 792.4296902131164C882.4470167359566 1175.5998815540397 431.91766418237785 1687.0741130965525 190.5798532921208 1604.7022814174984C-50.7579575981365 1522.3304497384443 102.91331324455098 885.4681736203993 -43.9162970532218 397.04489815365923C-190.74590735099468 -91.37837731308082 -670.1145688268316 -537.9364414206836 -514.2022761371908 -739.7294408228519C-358.28998344754996 -941.5224402250201 325.5749190752267 -676.8145831025638 704.4627078570547 -571.5614989767485C1083.3504966388825 -466.3084148509331 1219.033591814968 -518.6794681001584 1304.4591100155849 -234.51463701893624C1389.8846282162008 49.65019406228612 1346.5633737040666 409.2594988721928 1114.5051952200115 792.4296902131164 "></path><path d="M1278.6174551632976 -216.3856665723015C1361.602244272468 59.660169335171304 1319.5187398892517 408.99492257908105 1094.0907950761698 781.2173941674066C868.6628502630876 1153.4398657557322 431.0057649253256 1650.3005478256014 196.56332006050434 1570.2821970516634C-37.879124804316916 1490.2638462777254 111.40153830000804 871.5976351916247 -31.23294027497127 397.1293104525057C-173.8674188499507 -77.33901428661329 -639.5398328550493 -511.13827656257035 -488.0821770993983 -707.1657616961052C-336.62452134374723 -903.1932468296401 327.7013839640931 -646.0484713392539 695.7638073521546 -543.8026181884619C1063.8262307402158 -441.55676503766983 1195.6326660541272 -492.4315024797743 1278.6174551632976 -216.3856665723015C1361.602244272468 59.660169335171304 1319.5187398892517 408.99492257908105 1094.0907950761698 781.2173941674066 "></path><path d="M1252.7757087582768 -198.25669612566662C1333.3197687760007 69.67014460805694 1292.4740145217024 408.7303462859693 1073.6763033795935 770.0050981216971C854.8785922374843 1131.2798499574246 430.09377411553896 1613.526982554651 202.5466952761535 1535.8621126858288C-25.00038356323182 1458.1972428170066 119.88967180273073 857.7270967628497 -18.549675049455118 397.21372275135195C-156.98902190164108 -63.299651260145765 -608.9651884360015 -484.34011170445706 -461.96216961434016 -674.6020825693586C-314.9591507926789 -864.8640534342601 329.82775730022513 -615.282359575944 687.0648152945198 -516.0437374001754C1044.3018732888147 -416.80511522440656 1172.2316487405524 -466.1835368593904 1252.7757087582768 -198.25669612566662C1333.3197687760007 69.67014460805694 1292.4740145217024 408.7303462859693 1073.6763033795935 770.0050981216971 "></path><path d="M1226.9340844235678 -180.12772567903187C1305.037415349846 79.68011988094258 1265.429411224466 408.46576999285753 1053.2619337533297 758.7928020759875C841.0944562821937 1109.119834159117 429.1819053760646 1576.7534172837004 208.5301925621153 1501.4420283199938C-12.121520251834113 1426.1306393562872 128.37792737576592 843.8565583340751 -5.866287753626466 397.2981350501984C-140.11050288301885 -49.260288233678466 -578.3904219466411 -457.54194684634376 -435.84204005896953 -642.0384034426119C-293.2936581712979 -826.53486003888 331.9542527066694 -584.5162478126342 678.3659453071978 -488.2848566118887C1024.777637907726 -392.0534654111433 1148.83075349729 -439.9355712390063 1226.9340844235678 -180.12772567903187C1305.037415349846 79.68011988094258 1265.429411224466 408.46576999285753 1053.2619337533297 758.7928020759875 "></path><path d="M1201.0923380185466 -161.99875523239712C1276.7549398533783 89.69009515382822 1238.3846858569163 408.20119369974555 1032.8474420567534 747.5805060302778C827.3101982565904 1086.95981836081 428.2699145662782 1539.9798520127497 214.51356777776448 1467.0219439541588C0.7572209892509818 1394.0640358955684 136.8660608784886 829.9860199053003 6.816977471889686 397.38254734904444C-123.23210593470912 -35.22092520721094 -547.8157775275934 -430.7437819882306 -409.7220325739114 -609.4747243158652C-271.62828762022946 -788.2056666435 334.0806260428012 -553.7501360493243 669.6669532495632 -460.52597582360227C1005.253280456325 -367.30181559788 1125.429736183715 -413.68760561862246 1201.0923380185466 -161.99875523239712C1276.7549398533783 89.69009515382822 1238.3846858569163 408.20119369974555 1032.8474420567534 747.5805060302778 "></path><path d="M1175.2505916135256 -143.86966271544986C1248.472464356911 99.70019249702636 1211.3399604893673 407.9367394769463 1012.4329503601773 736.3683320548807C813.5259402309873 1064.799924632815 427.35792375649135 1503.2064088121115 220.49694299341377 1432.6019816586368C13.63596223033619 1361.997554505162 145.3541943812112 816.1156035468377 19.500242697405838 397.4670817182034C-106.35370898639951 -21.181440110431026 -517.2411331085455 -403.9454950598048 -383.6020250888533 -576.9109231188061C-249.9629170691611 -749.8763511778074 336.20699937893323 -522.9839022157021 660.9679611919287 -432.7669729650031C985.7289230049239 -342.55004371430425 1102.0287188701402 -387.439517927926 1175.2505916135256 -143.86966271544986C1248.472464356911 99.70019249702636 1211.3399604893673 407.9367394769463 1012.4329503601773 736.3683320548807 "></path><path d="M1149.4089367612387 -125.74069226881511C1220.190080413178 109.710167769912 1184.2953266745524 407.67216318383475 992.0185502163354 725.1560360091712C799.7417737581186 1042.6399088345077 426.4460244994391 1466.4328435411612 226.48040976179732 1398.1818972928022C26.51479502415566 1329.9309510444432 153.84241943666825 802.2450651180632 32.183599475656365 397.55149401704966C-89.47522048535552 -7.142077083963386 -486.6663971367632 -377.1473302016915 -357.4819260510608 -544.3472439920595C-228.29745496535838 -711.5471577824273 338.3334642677996 -492.21779045239214 652.2690606870285 -405.00809217671656C966.2046571062572 -317.798393901041 1078.6277931092993 -361.191552307542 1149.4089367612387 -125.74069226881511C1220.190080413178 109.710167769912 1184.2953266745524 407.67216318383475 992.0185502163354 725.1560360091712 "></path><path d="M1123.567251391374 -107.61172182218024C1191.9076659518669 119.72014304279764 1157.2506623421596 407.407586890723 971.6041195549155 713.9437399634614C785.9575767676713 1020.4798930362001 425.5340947248087 1429.65927827021 232.46384601260286 1363.7618129269672C39.393597300397005 1297.8643475837243 162.33061397454708 788.3745266892881 44.86692573632877 397.63590631589614C-72.59676250188954 6.897285942504027 -456.09169168255903 -350.3491653435782 -331.3618575308464 -511.78356486531277C-206.63202337913373 -673.2179643870473 340.45989863908767 -461.45167868908226 643.5701296645502 -377.24921138843C946.6803606900123 -293.0467440877777 1055.2268368308808 -334.9435866871579 1123.567251391374 -107.61172182218024C1191.9076659518669 119.72014304279764 1157.2506623421596 407.407586890723 971.6041195549155 713.9437399634614 "></path><path d="M1097.7255355039308 -89.48272085796737C1163.6252209729778 129.73014883326118 1130.2059674921882 407.14304111518913 951.1896583759174 702.73147443533C772.1733492596463 998.3199077554711 424.6221344326 1392.885743516838 238.44725174583016 1329.3417590787108C52.27236905906034 1265.7977746405832 170.8187779948479 774.5040187780917 57.550221479423044 397.7203491323205C-55.71833503600169 20.93667948654968 -425.51701674593306 -323.5509699678868 -305.24181952821016 -479.21985522098794C-184.9666223104872 -634.8887404740892 342.5863024927977 -430.68553640819425 634.8711681244936 -349.49030008256534C927.1560337561893 -268.2950637569363 1031.8258500348838 -308.6955905491959 1097.7255355039308 -89.48272085796737C1163.6252209729778 129.73014883326118 1130.2059674921882 407.14304111518913 951.1896583759174 702.73147443533 "></path><path d="M1071.883850134066 -71.35378092891074C1135.3428065116668 139.74009358856858 1103.1613031597954 406.87843430449925 930.7752277144973 691.5191478720424C758.3891522691995 976.1598614395855 423.7102046579698 1356.1121477283095 244.4306879966357 1294.9216441952976C65.1511713353018 1233.7311406622862 179.30697253272683 760.6334498317385 70.23354774009545 397.80473091358886C-38.839877052535826 34.97601199543897 -394.94231129172897 -296.7528356273516 -279.1217510079958 -446.65620661181947C-163.3011907242626 -596.5595775962872 344.71273686408597 -399.91945516246255 626.1722371020151 -321.7314498118569C907.6317373399445 -243.54344446125128 1008.4248937564653 -282.44765544638994 1071.883850134066 -71.35378092891074C1135.3428065116668 139.74009358856858 1103.1613031597954 406.87843430449925 930.7752277144973 691.5191478720424 "></path><path d="M1046.042164764201 -53.224779964697746C1107.0603920503556 149.75009937903235 1076.1166388274025 406.61388852896584 910.3607970530775 680.306882343911C744.6049552787526 953.9998761588563 422.7982748833392 1319.338612974937 250.41412424744112 1260.5015903470412C78.02997361154314 1201.6645677191452 187.79516707060566 746.7629419205421 82.91687400076785 397.8891737300132C-21.96141906906996 49.01540553948462 -364.3676058375248 -269.9546402516602 -253.00168248778135 -414.09249696749464C-141.63575913803788 -558.2303536833291 346.8391712353741 -369.15331288157455 617.4733060795368 -293.97253850599213C888.1074409236996 -218.79176413040977 985.0239374780463 -256.19965930842784 1046.042164764201 -53.224779964697746C1107.0603920503556 149.75009937903235 1076.1166388274025 406.61388852896584 910.3607970530775 680.306882343911 "></path><path d="M1020.2004793943361 -35.09568744775049C1078.7779775890444 159.76019672223038 1049.0719744950095 406.3494343061666 889.9463663916574 669.0947083685139C730.8207582883053 931.8399824308615 421.8863451087087 1282.5651697742987 256.3975604982468 1226.081628051519C90.90877588778449 1169.5980863287389 196.28336160848448 732.8925255620798 95.60020026144025 397.9737080991722C-5.0829610856039835 63.054890636264645 -333.7929003833207 -243.15635332323438 -226.88161396756698 -381.5286957704355C-119.97032755181328 -519.9010382176366 348.9656056066623 -338.3870790479522 608.7743750570585 -266.2135356473931C868.5831445074548 -194.039992246834 961.6229811996277 -229.95157161773136 1020.2004793943361 -35.09568744775049C1078.7779775890444 159.76019672223038 1049.0719744950095 406.3494343061666 889.9463663916574 669.0947083685139 "></path><path d="M994.3587940244711 -16.96671700111574C1050.4955631277335 169.7701719951159 1022.0273101626165 406.0848580130546 869.5319357302374 657.8824123228044C717.0365612978585 909.6799666325539 420.97441533407834 1245.791604503348 262.3809967490522 1191.661543685684C103.78757816402594 1137.53148286802 204.77155614636342 719.0219871333047 108.28352652211265 398.05812039801845C11.795496897861995 77.09425366273217 -303.2181949291166 -216.3581884651212 -200.7615454473526 -348.96501664368884C-98.30489596558863 -481.5718448222565 351.09203997795044 -307.62096728464235 600.0754440345802 -238.45465485910654C849.0588480912099 -169.28834243357073 938.2220249212089 -203.70360599734738 994.3587940244711 -16.96671700111574C1050.4955631277335 169.7701719951159 1022.0273101626165 406.0848580130546 869.5319357302374 657.8824123228044 "></path><path d="M968.5171391721842 1.1622534455191271C1022.2131791840004 179.78014726800154 994.9826763478015 405.82028171994284 849.1175355863957 646.6701162770946C703.2523948249896 887.5199508342464 420.062516077026 1209.0180392323975 268.36446351743575 1157.2414593198491C116.66641095784553 1105.464879407301 213.2597812018205 705.1514487045301 120.96688330036318 398.1425326968647C28.673985398905984 91.13361668919947 -272.64345895733436 -189.5600236070079 -174.6414464095601 -316.40133751694214C-76.63943386178585 -443.2426514268765 353.2185048668167 -276.8548555213325 591.37654352968 -210.69577407082C829.534582192543 -144.53669262030746 914.8210991603685 -177.4556403769634 968.5171391721842 1.1622534455191271C1022.2131791840004 179.78014726800154 994.9826763478015 405.82028171994284 849.1175355863957 646.6701162770946 "></path><path d="M942.6754538023195 19.29122389215388C993.9307647226892 189.79012254088718 967.9380120154087 405.5557054268313 828.7031049249758 635.4578202313853C689.4681978345427 865.3599350359393 419.1505863023956 1172.2444739614468 274.3478997682412 1122.8213749540146C129.54521323408687 1073.398275946582 221.7479757396993 691.2809102757553 133.65020956103558 398.22694499571116C45.55244338237185 105.17297971566722 -242.0687535031302 -162.7618587488946 -148.52137788934573 -283.8376583901955C-54.97400227556125 -404.9134580314964 355.34493923810487 -246.08874375802264 582.6776125072015 -182.93689328253345C810.0102857762984 -119.78504280704419 891.4201428819497 -151.20767475657942 942.6754538023195 19.29122389215388C993.9307647226892 189.79012254088718 967.9380120154087 405.5557054268313 828.7031049249758 635.4578202313853 "></path><path d="M916.8337379148763 37.42019433878863C965.6483197438001 199.8000978137727 940.8933171654376 405.29112913371955 808.2886437459774 624.2455241856758C675.6839703265175 843.1999192376318 418.238626010187 1135.4709086904963 280.3313055014685 1088.4012905881796C142.4239849927501 1041.3316724858632 230.23613976000024 677.4103718469805 146.33350530412986 398.3113572945574C62.4308708482597 119.21234274213452 -211.49407856650424 -135.96369389078131 -122.40133988670948 -251.27397926344884C-33.308601206914716 -366.5842646361164 357.4713430918148 -215.32263199471276 573.9786509671451 -155.1780124942469C790.4859588424754 -95.03339299378092 868.0191560859525 -124.95970913619544 916.8337379148763 37.42019433878863C965.6483197438001 199.8000978137727 940.8933171654376 405.29112913371955 808.2886437459774 624.2455241856758 "></path><path d="M890.9920525450116 55.54922582057975C937.3659052824889 209.81013412181449 913.8486528330445 405.0266138757638 787.8742130845576 613.0332891751223C661.8997733360707 821.0399644744807 417.3266962355566 1098.6974044547019 286.314741752274 1053.981267257501C155.30278726899155 1009.2651300603004 238.72433429787907 663.5398944533617 159.01683156480226 398.39583062856013C79.30932883172568 133.2517668037583 -180.9193731123001 -109.16546799751177 -96.2812713664951 -218.71023910154594C-11.64316962069006 -328.2550102055801 359.59777746310306 -184.5564591962467 565.2797199446668 -127.4190706708041C770.9616624262303 -70.2816821453614 844.618199807534 -98.71168248065521 890.9920525450116 55.54922582057975C937.3659052824889 209.81013412181449 913.8486528330445 405.0266138757638 787.8742130845576 613.0332891751223 "></path><path d="M865.1504282103028 73.67819626721439C909.083551856334 219.82010939470013 886.8040495358077 404.76203758265217 767.4598434582938 601.8209931294127C648.1156373807798 798.8799486761734 416.41482749608235 1061.9238391837512 292.2982390382358 1019.5611828916665C168.18165058038915 977.1985265995816 247.21258987091414 649.6693560245869 171.7002188606309 398.4802429274064C96.1878478503478 147.29112983022583 -150.34460662293975 -82.36730313939847 -70.16114181112448 -186.1465599747993C10.02232300069079 -289.92581681020005 361.72427286954735 -153.7903474329368 556.5808499573446 -99.6601898825175C751.4374270451419 -45.530032332098244 821.2173045642714 -72.46371686027123 865.1504282103028 73.67819626721439C909.083551856334 219.82010939470013 886.8040495358077 404.76203758265217 767.4598434582938 601.8209931294127 "></path><path d="M839.3087123228597 91.80716671384926C880.8011068774449 229.83008466758565 859.7593546858368 404.4974612895405 747.0453822792958 590.6086970837032C634.3314098727546 776.7199328778661 415.50286720387373 1025.1502739128007 298.2816447714631 985.1410985258317C181.06042233905248 945.1319231388627 255.70075389121496 635.7988175958124 184.3835146037253 398.56465522625285C113.06627531623553 161.33049285669335 -119.76993168631373 -55.56913828128518 -44.04110380848823 -153.58288084805258C31.68772406933732 -251.59662341482004 363.8506767232575 -123.02423566962693 547.8818884172882 -71.90130909423095C731.9131001113187 -20.77838251883486 797.8163177682745 -46.21575123988714 839.3087123228597 91.80716671384926C880.8011068774449 229.83008466758565 859.7593546858368 404.4974612895405 747.0453822792958 590.6086970837032 "></path><path d="M813.4669659178385 109.93619819564037C852.5186313809777 239.84012097562754 832.7146293182877 404.232946031585 726.6308905827195 579.3964620731499C620.5471518471516 754.5599781147148 414.590876394087 988.3767696770065 304.2650199871123 950.7210751951532C193.93916358013757 913.0653807132999 264.18888739393765 621.9283402021938 197.06677982924145 398.64912856025546C129.94467226454526 175.36991691831702 -89.19528726726588 -28.77091238801563 -17.921096323430106 -121.01914068614968C53.35309462040573 -213.26736898428373 365.9770500593894 -92.25806287116086 539.1828963596536 -44.1423672707881C712.3887426599176 3.9733283295845467 774.4153004546997 -19.96772458434691 813.4669659178385 109.93619819564037C852.5186313809777 239.84012097562754 832.7146293182877 404.232946031585 726.6308905827195 579.3964620731499 "></path><path d="M787.6253110655518 128.065168642275C824.2362474372444 249.85009624851318 805.6699955034728 403.96836973847314 706.2164904388778 568.1841660274404C606.7629853742827 732.3999623164075 413.67897713703474 951.6032044060557 310.24848675549595 916.3009908293184C206.81799637395716 880.998777252581 272.6771124493946 608.0578017734188 209.75013660749198 398.7335408591017C146.8231607655893 189.40927994478443 -58.620551295483665 -1.9727475299023922 8.19900271436245 -88.45546155940303C75.01855672420851 -174.93817558890368 368.1035149482557 -61.49195110785098 530.4839958547534 -16.383486482501553C692.8644767612509 28.724978142847874 751.0143746938593 6.280241036037012 787.6253110655518 128.065168642275C824.2362474372444 249.85009624851318 805.6699955034728 403.96836973847314 706.2164904388778 568.1841660274404 "></path><path d="M761.7836256956871 146.19413908890988C795.9538329759334 259.8600715213988 778.6253311710798 403.7037934453615 685.8020597774578 556.9718699817307C592.9787883838356 710.2399465181002 412.76704736240436 914.829639135105 316.2319230063015 881.8809064634836C219.6967986501985 848.9321737918622 281.16530698727354 594.1872633446442 222.43346286816438 398.81795315794807C163.70161874905523 203.44864297125196 -28.045845841279515 24.825417328210904 34.319071234576825 -55.891782432656385C96.68398831043316 -136.60898219352367 370.22994931954383 -30.7258393445411 521.7850648322751 11.375394305784994C673.3401803450062 53.476627956111145 727.6134184154403 32.52820665642105 761.7836256956871 146.19413908890988C795.9538329759334 259.8600715213988 778.6253311710798 403.7037934453615 685.8020597774578 556.9718699817307 "></path><path d="M735.9419403258221 164.32314005312276C767.6714185146225 269.87007731186236 751.5806668386867 403.43924766982775 665.3876291160377 545.7596044535993C579.1945913933888 688.0799612373708 411.855117587774 878.0561043817329 322.2153592571069 847.4608526152269C232.57560092643996 816.8656008487212 289.6535015251525 580.3167554334474 235.11678912883679 398.90239597437255C180.58007673252115 217.4880365152976 2.5288596129245775 51.623612703902324 60.4391397547912 -23.32807278833161C118.34941989665776 -98.27975828056549 372.356383690832 0.04030293634684767 513.0861338097966 39.134305611649665C653.8158839287613 78.22830828695248 704.2124621370217 58.77620279438315 735.9419403258221 164.32314005312276C767.6714185146225 269.87007731186236 751.5806668386867 403.43924766982775 665.3876291160377 545.7596044535993 "></path><path d="M710.1002549559571 182.45214101733563C739.3890040533113 279.8800831023261 724.5360025062938 403.17470189429423 644.9731984546178 534.5473389254679C565.4103944029417 665.9199759566418 410.94318781314337 841.2825696283603 328.19879550791245 813.0407987669705C245.4544032026813 784.7990279055803 298.1416960630313 566.4462475222508 247.8001153895092 398.98683879079704C197.45853471598707 231.52743005934326 33.10356506712873 78.42180807959375 86.55920827500557 9.23563685599322C140.01485148288242 -59.95053436760736 374.48281806212026 30.806445217234852 504.3872027873183 66.8932169175144C634.2915875125165 102.97998861779394 680.8115058586029 85.02419893234526 710.1002549559571 182.45214101733563C739.3890040533113 279.8800831023261 724.5360025062938 403.17470189429423 644.9731984546178 534.5473389254679 "></path><path d="M684.2585695860921 200.58108094639238C711.1065895920002 289.89002785763364 697.4913381739008 402.91009508360423 624.5587677931978 523.3350123621801C551.6261974124948 643.759929640756 410.031258038513 804.5089738398315 334.1822317587179 778.6206838835574C258.33320547892276 752.7323939272833 306.62989060091024 552.5756785758979 260.4834416501816 399.07122057206516C214.336992699453 245.56676256823255 63.67827052133282 105.21994242012886 112.67927679521995 41.799285465161745C161.68028306910708 -21.621371489805426 376.6092524334083 61.57252646296655 495.68827176484 94.65206718822282C614.7672910962715 127.73160791347908 657.4105495801842 111.27213403515111 684.2585695860921 200.58108094639238C711.1065895920002 289.89002785763364 697.4913381739008 402.91009508360423 624.5587677931978 523.3350123621801 "></path><path d="M658.4169147338054 218.71011242818338C682.8242056482673 299.9000641656754 670.446704359086 402.64557982564884 604.1443676493559 512.122777351627C537.8420309396259 621.599974877605 409.11935878146073 767.7354696040372 340.1656985271014 744.2006605528788C271.21203827274223 720.6658515017207 315.1181156563673 538.7052011822793 273.1667984284321 399.15569390606777C231.21548120049704 259.6061866298563 94.2530064931151 132.0181683133984 138.79937583301245 74.36302562706464C183.3457451729098 16.707882940730883 378.7357173222746 92.33869926143268 486.98937125993973 122.41100901166561C595.2430251976049 152.4833187618986 634.0096238193435 137.52016069069134 658.4169147338054 218.71011242818338C682.8242056482673 299.9000641656754 670.446704359086 402.64557982564884 604.1443676493559 512.122777351627 "></path><path d="M632.5752598815186 236.83911339239626C654.5418217045342 309.91006995613907 643.402070544271 402.3810340501152 583.7299675055141 500.9105118234954C524.0578644667571 599.4399895968758 408.20745952440836 730.9619348506646 346.1491652954851 709.7806067046223C284.09087106656176 688.5992785585798 323.60634071182426 524.8346932710825 285.85015520668264 399.24013672249225C248.09396970154108 273.645580173902 124.82774246489731 158.81636368908983 164.91947487080495 106.92673527138942C205.01120727671258 55.03710685368901 380.86218221114086 123.10484154232063 478.29047075503945 150.16992031753034C575.7187592989382 177.23499909273994 610.6086980585029 163.76815682865345 632.5752598815186 236.83911339239626C654.5418217045342 309.91006995613907 643.402070544271 402.3810340501152 583.7299675055141 500.9105118234954 "></path><path d="M606.7335134764974 254.96808383903112C626.259346208067 319.9200452290247 616.357345176722 402.11645775700345 563.3154758089379 489.6982157777859C510.2736064411539 577.2799737985683 407.2954687146216 694.1883695797142 352.13254051113427 675.3605223387875C296.9696123076469 656.5326750978609 332.09447421454695 510.96415484230783 298.53342043219885 399.3245490213387C264.97236664985076 287.6849432003694 155.40238688394516 185.61452854720312 191.03948235586307 139.49041439813607C226.676577827781 93.36630024906907 382.9885555472729 153.8709533056305 469.5914786974049 177.9288011058169C556.1944018475369 201.9866489060032 587.207680744928 190.01612244903748 606.7335134764974 254.96808383903112C626.259346208067 319.9200452290247 616.357345176722 402.11645775700345 563.3154758089379 489.6982157777859 "></path><path d="M580.8917670714764 273.0970542856659C597.9768707115995 329.93002050191035 589.3126198091727 401.8518814638917 542.9009841123617 478.48591973207635C496.4893484155507 555.119958000261 406.383477904835 657.4148043087635 358.11591572678356 640.9404379729527C309.84835354873206 624.466071637142 340.5826077172696 497.093616413533 311.216685657715 399.40896132018497C281.8507635981604 301.7243062268369 185.97703130299305 212.41269340531642 217.1594898409212 172.05409352488277C248.3419483788494 131.69549364444913 385.1149288834047 184.6370650689404 460.89248663977037 205.68768189410343C536.6700443961358 226.73829871926648 563.806663431353 216.26408806942146 580.8917670714764 273.0970542856659C597.9768707115995 329.93002050191035 589.3126198091727 401.8518814638917 542.9009841123617 478.48591973207635 "></path><path d="M555.0501122191895 291.22605524987875C569.6944867678666 339.940026292374 562.2679859943578 401.58733568835805 522.4865839685199 467.27365420394494C482.70518194268175 532.9599727195318 405.4715786477826 620.6412695553911 364.09938249516716 606.5203841246962C322.7271863425516 592.3994986940011 349.0708327727266 483.22310850233634 323.90004243596553 399.49340413660946C298.7292520992045 315.76369977088257 216.55176727477527 239.21088878100778 243.2795888787137 204.61780316920755C270.0074104826522 170.02471755740726 387.24139377227107 215.40320734982834 452.1935861348701 233.4465931999681C517.1457784974691 251.48997905010788 540.4057376705124 242.51208420738357 555.0501122191895 291.22605524987875C569.6944867678666 339.940026292374 562.2679859943578 401.58733568835805 522.4865839685199 467.27365420394494 "></path><path d="M529.2084573669026 309.3550562140917C541.4121028241336 349.9500320828377 535.223352179543 401.3227899128244 502.07218382467795 456.06138867581353C468.921015469813 510.7999874388024 404.55967939073037 583.8677348020186 370.0828492635507 572.1003302764394C335.6060191363711 560.3329257508603 357.55905782818365 469.35260059113966 336.58339921421606 399.57784695303394C315.6077406002485 329.80309331492816 247.12650324655755 266.0090841566992 269.39968791650625 237.18151281353232C291.6728725864549 208.35394147036544 389.3678586611373 246.16934963071634 443.4946856299698 261.20550450583283C497.6215125988024 276.2416593809493 517.0048119096717 268.76008034534567 529.2084573669026 309.3550562140917C541.4121028241336 349.9500320828377 535.223352179543 401.3227899128244 502.07218382467795 456.06138867581353 "></path><path d="M503.3667414794596 327.4840266607265C513.1296578452444 359.9600073557233 508.17865732957193 401.05821361971266 481.6577226456799 444.8490926301039C455.13678796178783 488.6399716404951 403.64771909852175 547.094169531068 376.06625499677807 537.6802459106048C348.4847908950344 528.2663222901414 366.0472218484844 455.48206216236485 349.2666949573104 399.6622592518803C332.4861680661363 343.84245634139563 277.7011781831835 292.8072490148125 295.5197259191425 269.74519194027897C313.33827365510143 246.6831348657455 391.4942625148474 276.9354613940262 434.7957240899134 288.9643852941194C478.0971856649794 300.99330919421254 493.60382511367493 295.00804596572965 503.3667414794596 327.4840266607265C513.1296578452444 359.9600073557233 508.17865732957193 401.05821361971266 481.6577226456799 444.8490926301039 "></path><path d="M477.52505610959474 345.6130276249394C484.84724338393335 369.970013146187 481.1339929971789 400.793667844179 461.24329198425994 433.6368271019725C441.3525909713409 466.4799863597659 402.7357893238913 510.32063477769555 382.04969124758355 503.2601920623481C361.3635931712758 496.19974934700053 374.5354163863633 441.6115542511682 361.9500212179828 399.7467020683047C349.36462604960224 357.8818498854413 308.27588363738766 319.6054443905039 321.6397944393569 302.30890158460375C335.0037052413261 285.01235877870363 393.62069688613553 307.70160367491417 426.09679306743504 316.72329659998405C458.57288924873455 325.74498952505394 470.2028688352562 321.25604210369175 477.52505610959474 345.6130276249394C484.84724338393335 369.970013146187 481.1339929971789 400.793667844179 461.24329198425994 433.6368271019725 "></path><path d="M451.6833859985189 363.74201333036325C456.5648441814113 379.98000367786165 454.08934392357503 400.52910680985633 440.828876581629 422.42454631505194C427.568409239683 444.31998582024755 401.82387480804994 473.547084765534 388.0331427571781 468.8401229553024C374.24241070630626 464.1331611450707 383.0236261830313 427.7410310811824 374.63336273744426 399.83112962594015C366.2430992918572 371.9212281706978 338.8506043503808 346.4036245074062 347.7598782183603 334.8725959701395C356.66915208633975 323.34156743287275 395.74714651621275 338.4677306970131 417.39787730374576 344.48219264705966C439.04860809127877 350.49665459710627 446.8019278156265 347.50402298286485 451.6833859985189 363.74201333036325C456.5648441814113 379.98000367786165 454.08934392357503 400.52910680985633 440.828876581629 422.42454631505194 "></path><path d="M425.84168536986493 381.8710142945761C428.2824144613111 389.99000946832535 427.044664332393 400.2645610343227 420.41443066141994 411.21228078692053C413.78419699044696 422.1600005395183 400.91192977463044 436.77355001216154 394.0165637491945 434.4200691070457C387.1211977237586 432.0665882019299 391.5118054621211 413.87052316998574 387.3166737393276 399.9155724423646C383.1215420165341 385.96062171474347 369.4252945457959 373.20181988309764 373.8799314797856 367.4363056144643C378.33456841377534 361.6707913458309 397.87356562871184 369.23387297790106 408.69893102247835 372.2411039529244C419.52429641624485 375.24833492794767 423.40095627841873 373.75201912082696 425.84168536986493 381.8710142945761C428.2824144613111 389.99000946832535 427.044664332393 400.2645610343227 420.41443066141994 411.21228078692053 "></path></g></svg>